<svg width="10" height="9" viewBox="0 0 10 9" fill="none" xmlns="http://www.w3.org/2000/svg">
<path d="M8.46 1.005C8.36 0.71 8.08 0.5 7.75 0.5H2.25C1.92 0.5 1.645 0.71 1.54 1.005L0.555 3.84C0.52 3.945 0.5 4.055 0.5 4.17V7.75C0.5 8.165 0.835 8.5 1.25 8.5C1.665 8.5 2 8.165 2 7.75V7.5H8V7.75C8 8.16 8.335 8.5 8.75 8.5C9.16 8.5 9.5 8.165 9.5 7.75V4.17C9.5 4.06 9.48 3.945 9.445 3.84L8.46 1.005ZM2.25 6C1.835 6 1.5 5.665 1.5 5.25C1.5 4.835 1.835 4.5 2.25 4.5C2.665 4.5 3 4.835 3 5.25C3 5.665 2.665 6 2.25 6ZM7.75 6C7.335 6 7 5.665 7 5.25C7 4.835 7.335 4.5 7.75 4.5C8.165 4.5 8.5 4.835 8.5 5.25C8.5 5.665 8.165 6 7.75 6ZM1.5 3.5L2.135 1.59C2.205 1.39 2.395 1.25 2.61 1.25H7.39C7.605 1.25 7.795 1.39 7.865 1.59L8.5 3.5H1.5Z" fill="#666666"/>
</svg>
