<svg width="31" height="31" viewBox="0 0 31 31" fill="none" xmlns="http://www.w3.org/2000/svg">
<g clip-path="url(#clip0_25_159)">
<path d="M24.4383 7.76292C24.18 7.00083 23.4567 6.45833 22.6042 6.45833H8.39583C7.54333 6.45833 6.83292 7.00083 6.56167 7.76292L4.01708 15.0867C3.92667 15.3579 3.875 15.6421 3.875 15.9392V25.1875C3.875 26.2596 4.74042 27.125 5.8125 27.125C6.88458 27.125 7.75 26.2596 7.75 25.1875V24.5417H23.25V25.1875C23.25 26.2467 24.1154 27.125 25.1875 27.125C26.2467 27.125 27.125 26.2596 27.125 25.1875V15.9392C27.125 15.655 27.0733 15.3579 26.9829 15.0867L24.4383 7.76292ZM8.39583 20.6667C7.32375 20.6667 6.45833 19.8012 6.45833 18.7292C6.45833 17.6571 7.32375 16.7917 8.39583 16.7917C9.46792 16.7917 10.3333 17.6571 10.3333 18.7292C10.3333 19.8012 9.46792 20.6667 8.39583 20.6667ZM22.6042 20.6667C21.5321 20.6667 20.6667 19.8012 20.6667 18.7292C20.6667 17.6571 21.5321 16.7917 22.6042 16.7917C23.6762 16.7917 24.5417 17.6571 24.5417 18.7292C24.5417 19.8012 23.6762 20.6667 22.6042 20.6667ZM6.45833 14.2083L8.09875 9.27417C8.27958 8.7575 8.77042 8.39583 9.32583 8.39583H21.6742C22.2296 8.39583 22.7204 8.7575 22.9012 9.27417L24.5417 14.2083H6.45833Z" fill="#666666"/>
</g>
<defs>
<clipPath id="clip0_25_159">
<rect width="31" height="31" fill="white"/>
</clipPath>
</defs>
</svg>
