<svg width="11" height="9" viewBox="0 0 11 9" fill="none" xmlns="http://www.w3.org/2000/svg">
<path d="M1.70161 0C0.957735 0 0.212933 0.459696 0.212933 1.37909L1.70161 3.8308L3.18935 1.37909C3.18935 0.459696 2.44548 0 1.70161 0ZM8.26395 0.747007C8.10355 0.752561 7.9478 0.777653 7.81763 0.800638L7.90596 1.13775C8.03614 1.11381 8.17096 1.09867 8.28487 1.09178L8.26395 0.747007ZM1.70161 0.766161C2.11306 0.766161 2.44548 1.04064 2.44548 1.37909C2.44548 1.71812 2.11306 1.99202 1.70161 1.99202C1.29085 1.99202 0.957735 1.71812 0.957735 1.37909C0.957735 1.04064 1.29085 0.766161 1.70161 0.766161ZM8.72654 0.769992L8.6568 1.10902C8.77071 1.12875 8.88461 1.15346 8.98457 1.20287L9.18681 0.900239C9.04501 0.837988 8.88694 0.782059 8.72654 0.769992ZM7.3899 0.898324C7.2481 0.94391 7.1063 0.984708 6.98542 1.02474L7.15047 1.34078C7.27832 1.29596 7.41315 1.25689 7.52705 1.22394L7.3899 0.898324ZM9.56805 1.15499L9.24958 1.37909C9.33326 1.458 9.39835 1.55531 9.44949 1.63384L9.82375 1.47869C9.74472 1.35323 9.67498 1.25823 9.56805 1.15499ZM6.59721 1.17223C6.45541 1.23179 6.33918 1.28485 6.21365 1.33695L6.41822 1.63958C6.5391 1.58212 6.6716 1.52658 6.77853 1.48252L6.59721 1.17223ZM5.84636 1.51508C5.72316 1.57446 5.60228 1.63384 5.48373 1.69896L5.71154 1.98627C5.82544 1.92498 5.944 1.86752 6.06023 1.81005L5.84636 1.51508ZM9.96788 1.85794C9.83073 1.87709 9.69125 1.8905 9.5541 1.90391C9.5634 1.99968 9.55642 2.10311 9.53318 2.18356L9.93998 2.26209C9.96323 2.12418 9.98415 1.98244 9.96788 1.85794ZM5.13039 1.8905C5.01416 1.95563 4.90025 2.02266 4.78402 2.08779L5.02578 2.36935C5.13736 2.30231 5.25127 2.2391 5.36517 2.17398L5.13039 1.8905ZM4.44231 2.29465C4.32608 2.36361 4.2052 2.44022 4.10524 2.50343L4.35862 2.77733C4.48647 2.70072 4.57481 2.64325 4.69104 2.57238L4.44231 2.29465ZM9.3937 2.44788C9.32397 2.53599 9.2426 2.6241 9.16124 2.69114L9.46576 2.93057C9.56572 2.83288 9.67266 2.73328 9.74704 2.63368L9.3937 2.44788ZM3.77282 2.71796C3.65892 2.79074 3.54501 2.86544 3.44506 2.9344L3.71006 3.20064C3.81932 3.12594 3.9309 3.04932 4.03318 2.98803L3.77282 2.71796ZM8.87299 2.91141C8.76606 2.98228 8.65448 3.05124 8.5522 3.1087L8.79163 3.39218C8.91483 3.32322 9.03571 3.24852 9.14032 3.17957L8.87299 2.91141ZM3.12194 3.1585C3.01268 3.23128 2.90807 3.3079 2.80114 3.3826L3.07312 3.64501C3.17773 3.57031 3.28233 3.49561 3.38926 3.42282L3.12194 3.1585ZM8.21048 3.29258C8.09193 3.35004 7.96872 3.40942 7.85714 3.45922L8.05706 3.76376C8.18259 3.70056 8.32439 3.64501 8.42899 3.58755L8.21048 3.29258ZM2.48267 3.61053C2.37806 3.68715 2.27578 3.76377 2.17118 3.8423L2.45245 4.09896C2.55473 4.02234 2.65934 3.94573 2.76162 3.86911L2.48267 3.61053ZM7.49218 3.61819C7.36898 3.66799 7.24577 3.71971 7.12257 3.76951L7.30156 4.07981C7.44569 4.02234 7.55262 3.97446 7.6828 3.92466L7.49218 3.61819ZM6.74831 3.91317C6.62046 3.96105 6.49725 4.00702 6.36707 4.05107L6.53677 4.36712C6.66462 4.32115 6.79248 4.27326 6.92033 4.22538L6.74831 3.91317ZM1.86433 4.07981C1.74577 4.166 1.66325 4.23304 1.55516 4.31923L1.85038 4.56823C1.95964 4.48204 2.04797 4.40734 2.15025 4.33455L1.86433 4.07981ZM5.98584 4.1909C5.85799 4.23495 5.73014 4.28092 5.60228 4.32498L5.765 4.64485C5.89518 4.6008 6.02303 4.55483 6.15089 4.50886L5.98584 4.1909ZM5.2164 4.45906C5.08855 4.50503 4.96069 4.55099 4.83052 4.59313L4.99324 4.91301C5.12109 4.86895 5.25127 4.82298 5.37912 4.77893L5.2164 4.45906ZM9.51226 4.59696C8.76839 4.59696 8.02451 5.05666 8.02451 5.97605L9.51226 8.42777L11 5.97605C11 5.05666 10.2561 4.59696 9.51226 4.59696ZM4.44463 4.72721C4.31213 4.77701 4.17265 4.82298 4.05875 4.86321L4.2238 5.18116C4.36095 5.13328 4.49112 5.08731 4.60735 5.04517L4.44463 4.72721ZM3.67287 4.9992C3.54734 5.04708 3.40089 5.10072 3.28931 5.14285L3.46133 5.45698C3.59848 5.40718 3.71936 5.35738 3.84024 5.31524L3.67287 4.9992ZM2.90575 5.28651C2.77557 5.33823 2.64074 5.39186 2.52451 5.43974L2.71281 5.74812C2.83833 5.69449 2.96851 5.64469 3.08242 5.59872L2.90575 5.28651ZM9.51226 5.36313C9.92371 5.36313 10.2561 5.63703 10.2561 5.97605C10.2561 6.31508 9.92371 6.58898 9.51226 6.58898C9.1008 6.58898 8.76839 6.31508 8.76839 5.97605C8.76839 5.63703 9.1008 5.36313 9.51226 5.36313ZM2.14793 5.59872C2.02473 5.65427 1.90152 5.71173 1.77599 5.77111L1.98521 6.06991C2.10376 6.01245 2.22464 5.95882 2.34552 5.90518L2.14793 5.59872ZM1.41103 5.9569C1.28062 6.01819 1.15463 6.10056 1.04607 6.15993L1.29945 6.43575C1.41498 6.3668 1.53935 6.29593 1.63884 6.24613L1.41103 5.9569ZM0.715976 6.38978C0.604396 6.47406 0.494442 6.57174 0.409129 6.65411L0.727599 6.87821C0.817096 6.78818 0.89497 6.72115 0.999577 6.64453L0.715976 6.38978ZM5.77895 6.41468L5.81615 6.75754C5.93702 6.7403 6.0579 6.75179 6.17878 6.76712L6.25084 6.42809C6.09742 6.40894 5.9347 6.39553 5.77895 6.41468ZM4.9142 6.60622L5.07227 6.92609C5.19315 6.88204 5.31868 6.84756 5.44653 6.815C5.40237 6.70582 5.36982 6.59473 5.33495 6.48364C5.1885 6.51811 5.04205 6.56408 4.9142 6.60622ZM6.71576 6.58898L6.47866 6.87246C6.57629 6.93184 6.6716 6.99505 6.74831 7.07358L7.06445 6.84756C6.9459 6.74796 6.85524 6.65411 6.71576 6.58898ZM4.51902 6.76137C4.39117 6.815 4.26796 6.87629 4.14476 6.93567L4.3563 7.23256C4.47718 7.17893 4.59573 7.11572 4.71429 7.064L4.51902 6.76137ZM0.153656 6.97206C0.0834531 7.09656 0.0265004 7.23064 0 7.3494L0.411454 7.40877C0.43656 7.2996 0.472591 7.22107 0.525359 7.12721C0.397739 7.08124 0.27593 7.02569 0.153656 6.97206ZM3.78212 7.12146C3.66357 7.18467 3.54734 7.24788 3.43111 7.313L3.66357 7.60031C3.7798 7.53711 3.8937 7.47198 4.00993 7.40877L3.78212 7.12146ZM7.33178 7.14445L6.98077 7.33216C7.05516 7.4241 7.12722 7.51987 7.19463 7.61755L7.55727 7.44517C7.47591 7.3379 7.41779 7.24214 7.33178 7.14445ZM3.08474 7.50838C2.96851 7.57158 2.85228 7.63288 2.73838 7.69992L2.97084 7.98723C3.08242 7.92019 3.20097 7.85698 3.31953 7.79185L3.08474 7.50838ZM0.416103 7.69034C0.281509 7.71332 0.145752 7.73248 0.0104607 7.75355C0.034869 7.88763 0.10019 8.01787 0.159235 8.1213L0.536982 7.9719C0.486538 7.87613 0.438652 7.77653 0.416103 7.69034ZM7.76416 7.74397L7.40152 7.91636C7.47358 8.01979 7.55727 8.13088 7.62468 8.21899L7.9757 8.0332C7.89666 7.93168 7.82925 7.83591 7.76416 7.74397ZM2.39434 7.88763C2.27811 7.947 2.1642 8.00446 2.04332 8.06001L2.25021 8.36073C2.37341 8.30135 2.49662 8.24197 2.61517 8.17877L2.39434 7.88763ZM0.736898 8.19984L0.450972 8.45267C0.58022 8.55418 0.739687 8.62122 0.913567 8.65187L1.00655 8.31668C0.903339 8.29944 0.806868 8.2573 0.736898 8.19984ZM1.68998 8.20558C1.57352 8.24964 1.45264 8.28411 1.32735 8.30518L1.42265 8.64229C1.57189 8.61739 1.7123 8.57142 1.8527 8.52354L1.68998 8.20558ZM8.20583 8.29752L7.88271 8.51396C7.98267 8.61548 8.10588 8.71316 8.21281 8.78212L8.47084 8.51013C8.36855 8.44501 8.28022 8.36648 8.20583 8.29752ZM8.76606 8.63272L8.66145 8.96791C8.8451 8.99856 8.98225 9.00814 9.15427 8.99281L9.10313 8.64996C8.98922 8.66528 8.87764 8.6557 8.76606 8.63272Z" fill="#666666"/>
</svg>
