<svg width="32" height="26" viewBox="0 0 32 26" fill="none" xmlns="http://www.w3.org/2000/svg">
<path d="M4.95013 0C2.78614 0 0.619442 1.32801 0.619442 3.98404L4.95013 11.0668L9.27811 3.98404C9.27811 1.32801 7.11412 0 4.95013 0ZM24.0406 2.15802C23.574 2.17407 23.1209 2.24655 22.7422 2.31295L22.9992 3.28683C23.3779 3.21766 23.7701 3.17395 24.1014 3.15403L24.0406 2.15802ZM4.95013 2.21335C6.14708 2.21335 7.11412 3.00629 7.11412 3.98404C7.11412 4.96345 6.14708 5.75472 4.95013 5.75472C3.7552 5.75472 2.78614 4.96345 2.78614 3.98404C2.78614 3.00629 3.7552 2.21335 4.95013 2.21335ZM25.3863 2.22442L25.1834 3.20383C25.5148 3.26082 25.8462 3.3322 26.1369 3.47496L26.7253 2.60069C26.3128 2.42086 25.8529 2.25928 25.3863 2.22442ZM21.4979 2.59516C21.0854 2.72685 20.6729 2.84471 20.3212 2.96036L20.8014 3.87337C21.1733 3.74389 21.5655 3.63101 21.8969 3.53583L21.4979 2.59516ZM27.8343 3.33663L26.9079 3.98404C27.1513 4.21201 27.3407 4.49311 27.4894 4.71998L28.5782 4.27177C28.3483 3.90934 28.1454 3.63488 27.8343 3.33663ZM19.1919 3.38643C18.7794 3.55852 18.4413 3.71179 18.0761 3.8623L18.6712 4.73658C19.0228 4.57057 19.4083 4.41011 19.7194 4.28284L19.1919 3.38643ZM17.0076 4.37691C16.6492 4.54844 16.2975 4.71998 15.9527 4.90811L16.6154 5.73812C16.9467 5.56105 17.2916 5.39505 17.6298 5.22905L17.0076 4.37691ZM28.9975 5.36738C28.5985 5.42272 28.1927 5.46145 27.7937 5.50018C27.8208 5.77685 27.8005 6.07565 27.7329 6.30806L28.9163 6.53493C28.9839 6.13652 29.0448 5.72705 28.9975 5.36738ZM14.9248 5.46145C14.5866 5.64958 14.2553 5.84325 13.9172 6.03139L14.6205 6.8448C14.9451 6.65113 15.2764 6.46853 15.6078 6.28039L14.9248 5.46145ZM12.9231 6.62899C12.585 6.8282 12.2333 7.04953 11.9425 7.23213L12.6796 8.02341C13.0516 7.80207 13.3085 7.63607 13.6467 7.43133L12.9231 6.62899ZM27.3271 7.07166C27.1243 7.3262 26.8876 7.58074 26.6509 7.7744L27.5368 8.46608C27.8276 8.18387 28.1386 7.89614 28.355 7.6084L27.3271 7.07166ZM10.9755 7.85187C10.6441 8.06214 10.3128 8.27794 10.022 8.47714L10.7929 9.24628C11.1107 9.03048 11.4353 8.80915 11.7329 8.63208L10.9755 7.85187ZM25.8123 8.41074C25.5013 8.61548 25.1767 8.81468 24.8791 8.98068L25.5757 9.79962C25.9341 9.60042 26.2857 9.38462 26.59 9.18542L25.8123 8.41074ZM9.082 9.12455C8.76416 9.33482 8.45985 9.55615 8.14877 9.77196L8.93998 10.53C9.2443 10.3142 9.5486 10.0984 9.85968 9.88816L9.082 9.12455ZM23.885 9.51189C23.5402 9.67789 23.1817 9.84942 22.8571 9.99329L23.4387 10.8731C23.8039 10.6905 24.2164 10.53 24.5207 10.364L23.885 9.51189ZM7.22232 10.4304C6.918 10.6518 6.62046 10.8731 6.31615 11.1L7.1344 11.8414C7.43195 11.6201 7.73626 11.3988 8.03381 11.1774L7.22232 10.4304ZM21.7954 10.4526C21.437 10.5964 21.0786 10.7458 20.7202 10.8897L21.2409 11.7861C21.6602 11.6201 21.9713 11.4818 22.35 11.3379L21.7954 10.4526ZM19.6314 11.3047C19.2595 11.443 18.9011 11.5758 18.5224 11.7031L19.0161 12.6161C19.388 12.4833 19.7599 12.345 20.1319 12.2066L19.6314 11.3047ZM5.4235 11.7861C5.07861 12.0351 4.83855 12.2288 4.52409 12.4778L5.38292 13.1971C5.70076 12.9481 5.95773 12.7323 6.25528 12.522L5.4235 11.7861ZM17.4134 12.107C17.0414 12.2343 16.6695 12.3671 16.2975 12.4944L16.7709 13.4185C17.1496 13.2912 17.5216 13.1584 17.8935 13.0256L17.4134 12.107ZM15.175 12.8817C14.803 13.0145 14.4311 13.1473 14.0524 13.2691L14.5258 14.1931C14.8977 14.0659 15.2764 13.9331 15.6484 13.8058L15.175 12.8817ZM27.672 13.2801C25.508 13.2801 23.344 14.6081 23.344 17.2642L27.672 24.3469L32 17.2642C32 14.6081 29.836 13.2801 27.672 13.2801ZM12.9298 13.6564C12.5444 13.8003 12.1386 13.9331 11.8073 14.0493L12.2874 14.9678C12.6864 14.8295 13.0651 14.6967 13.4032 14.5749L12.9298 13.6564ZM10.6847 14.4421C10.3195 14.5805 9.89349 14.7354 9.56889 14.8571L10.0693 15.7646C10.4683 15.6207 10.82 15.4769 11.1716 15.3551L10.6847 14.4421ZM8.45308 15.2721C8.07439 15.4215 7.68216 15.5765 7.34404 15.7148L7.8918 16.6057C8.25697 16.4507 8.63567 16.3069 8.96703 16.1741L8.45308 15.2721ZM27.672 15.4935C28.869 15.4935 29.836 16.2847 29.836 17.2642C29.836 18.2436 28.869 19.0348 27.672 19.0348C26.4751 19.0348 25.508 18.2436 25.508 17.2642C25.508 16.2847 26.4751 15.4935 27.672 15.4935ZM6.24852 16.1741C5.89011 16.3345 5.5317 16.5005 5.16653 16.6721L5.77515 17.5353C6.12003 17.3693 6.47168 17.2144 6.82333 17.0594L6.24852 16.1741ZM4.10482 17.2088C3.72544 17.3859 3.35892 17.6238 3.04311 17.7954L3.78022 18.5922C4.11631 18.393 4.47811 18.1882 4.76754 18.0444L4.10482 17.2088ZM2.08284 18.4594C1.75824 18.7028 1.43838 18.985 1.19019 19.223L2.11665 19.8704C2.37701 19.6103 2.60355 19.4166 2.90786 19.1953L2.08284 18.4594ZM16.8115 18.5313L16.9197 19.5218C17.2713 19.472 17.623 19.5052 17.9746 19.5494L18.1843 18.57C17.738 18.5147 17.2646 18.476 16.8115 18.5313ZM14.2959 19.0846L14.7557 20.0087C15.1074 19.8814 15.4725 19.7818 15.8445 19.6878C15.716 19.3724 15.6213 19.0514 15.5199 18.7305C15.0938 18.8301 14.6678 18.9629 14.2959 19.0846ZM19.5368 19.0348L18.847 19.8538C19.131 20.0253 19.4083 20.2079 19.6314 20.4348L20.5511 19.7818C20.2063 19.4941 19.9425 19.223 19.5368 19.0348ZM13.1462 19.5328C12.7743 19.6878 12.4159 19.8648 12.0575 20.0364L12.6729 20.8941C13.0245 20.7391 13.3694 20.5565 13.7143 20.4071L13.1462 19.5328ZM0.446999 20.1415C0.242773 20.5012 0.0770921 20.8885 0 21.2316L1.19696 21.4031C1.26999 21.0877 1.37481 20.8609 1.52832 20.5897C1.15706 20.4569 0.802705 20.2964 0.446999 20.1415ZM11.0025 20.5731C10.6577 20.7557 10.3195 20.9383 9.9814 21.1265L10.6576 21.9565C10.9958 21.7739 11.3271 21.5857 11.6653 21.4031L11.0025 20.5731ZM21.3288 20.6395L20.3077 21.1818C20.5241 21.4474 20.7337 21.7241 20.9298 22.0063L21.9848 21.5083C21.7481 21.1984 21.579 20.9217 21.3288 20.6395ZM8.9738 21.6909C8.63567 21.8735 8.29755 22.0505 7.96619 22.2442L8.64243 23.0742C8.96703 22.8805 9.31192 22.6979 9.65681 22.5098L8.9738 21.6909ZM1.21048 22.2165C0.818935 22.2829 0.424007 22.3383 0.0304312 22.3991C0.101437 22.7865 0.291462 23.1627 0.463229 23.4615L1.56213 23.0299C1.41538 22.7533 1.27608 22.4655 1.21048 22.2165ZM22.5866 22.3715L21.5317 22.8695C21.7413 23.1683 21.9848 23.4892 22.1809 23.7437L23.202 23.207C22.9721 22.9137 22.776 22.6371 22.5866 22.3715ZM6.96534 22.7865C6.62722 22.958 6.29586 23.124 5.94421 23.2845L6.54607 24.1532C6.90448 23.9817 7.26289 23.8101 7.60778 23.6275L6.96534 22.7865ZM2.1437 23.6884L1.31192 24.4188C1.68791 24.7121 2.15182 24.9058 2.65765 24.9943L2.92815 24.026C2.6279 23.9762 2.34725 23.8544 2.1437 23.6884ZM4.91631 23.705C4.57751 23.8323 4.22587 23.9319 3.86137 23.9928L4.13863 24.9666C4.57278 24.8947 4.98123 24.7619 5.38969 24.6236L4.91631 23.705ZM23.8715 23.9706L22.9315 24.5959C23.2223 24.8892 23.5807 25.1714 23.8918 25.3706L24.6424 24.5848C24.3449 24.3967 24.0879 24.1698 23.8715 23.9706ZM25.5013 24.939L25.197 25.9073C25.7312 25.9958 26.1302 26.0235 26.6306 25.9792L26.4818 24.9888C26.1505 25.033 25.8259 25.0054 25.5013 24.939Z" fill="#666666"/>
</svg>
