<svg width="36" height="36" viewBox="0 0 36 36" fill="none" xmlns="http://www.w3.org/2000/svg">
<path d="M23.75 18C23.75 19.1372 23.4128 20.2489 22.781 21.1945C22.1491 22.1401 21.2511 22.8771 20.2004 23.3123C19.1498 23.7475 17.9936 23.8614 16.8782 23.6395C15.7628 23.4177 14.7383 22.87 13.9341 22.0659C13.13 21.2617 12.5823 20.2372 12.3605 19.1218C12.1386 18.0064 12.2525 16.8502 12.6877 15.7996C13.1229 14.7489 13.8599 13.8509 14.8055 13.2191C15.7511 12.5872 16.8628 12.25 18 12.25C19.5235 12.2547 20.9833 12.8621 22.0606 13.9394C23.1379 15.0167 23.7453 16.4765 23.75 18ZM35.9688 10.0938V25.9062C35.9688 28.575 34.9086 31.1344 33.0215 33.0215C31.1344 34.9086 28.575 35.9688 25.9062 35.9688H10.0938C7.42501 35.9688 4.86557 34.9086 2.97849 33.0215C1.0914 31.1344 0.03125 28.575 0.03125 25.9062V10.0938C0.03125 7.42501 1.0914 4.86557 2.97849 2.97849C4.86557 1.0914 7.42501 0.03125 10.0938 0.03125H25.9062C28.575 0.03125 31.1344 1.0914 33.0215 2.97849C34.9086 4.86557 35.9688 7.42501 35.9688 10.0938ZM26.625 18C26.625 16.2941 26.1192 14.6266 25.1714 13.2082C24.2237 11.7898 22.8767 10.6843 21.3006 10.0315C19.7246 9.37873 17.9904 9.20793 16.3173 9.54073C14.6443 9.87352 13.1074 10.695 11.9012 11.9012C10.695 13.1074 9.87352 14.6443 9.54073 16.3173C9.20793 17.9904 9.37873 19.7246 10.0315 21.3006C10.6843 22.8767 11.7898 24.2237 13.2082 25.1714C14.6266 26.1192 16.2941 26.625 18 26.625C20.2875 26.625 22.4813 25.7163 24.0988 24.0988C25.7163 22.4813 26.625 20.2875 26.625 18ZM29.5 8.65625C29.5 8.22978 29.3735 7.8129 29.1366 7.4583C28.8997 7.10371 28.5629 6.82734 28.1689 6.66413C27.7749 6.50093 27.3414 6.45823 26.9231 6.54143C26.5048 6.62463 26.1206 6.82999 25.8191 7.13155C25.5175 7.43311 25.3121 7.81731 25.2289 8.23559C25.1457 8.65386 25.1884 9.08741 25.3516 9.48141C25.5148 9.87541 25.7912 10.2122 26.1458 10.4491C26.5004 10.686 26.9173 10.8125 27.3438 10.8125C27.9156 10.8125 28.4641 10.5853 28.8684 10.1809C29.2728 9.77657 29.5 9.22812 29.5 8.65625Z" fill="black"/>
</svg>
