<svg width="19" height="25" viewBox="0 0 19 25" fill="none" xmlns="http://www.w3.org/2000/svg">
<path d="M10.6727 24.4382C13.2109 21.2953 19 13.678 19 9.39932C19 4.21011 14.7448 0 9.5 0C4.25521 0 0 4.21011 0 9.39932C0 13.678 5.78906 21.2953 8.32734 24.4382C8.93594 25.1873 10.0641 25.1873 10.6727 24.4382ZM9.5 12.5324C7.75339 12.5324 6.33333 11.1274 6.33333 9.39932C6.33333 7.67122 7.75339 6.26622 9.5 6.26622C11.2466 6.26622 12.6667 7.67122 12.6667 9.39932C12.6667 11.1274 11.2466 12.5324 9.5 12.5324Z" fill="#666666"/>
</svg>
