<svg width="7" height="9" viewBox="0 0 7 9" fill="none" xmlns="http://www.w3.org/2000/svg">
<path d="M3.93203 8.79777C4.86719 7.66632 7 4.92407 7 3.38376C7 1.51564 5.43229 0 3.5 0C1.56771 0 0 1.51564 0 3.38376C0 4.92407 2.13281 7.66632 3.06797 8.79777C3.29219 9.06741 3.70781 9.06741 3.93203 8.79777ZM3.5 4.51168C2.85651 4.51168 2.33333 4.00587 2.33333 3.38376C2.33333 2.76164 2.85651 2.25584 3.5 2.25584C4.14349 2.25584 4.66667 2.76164 4.66667 3.38376C4.66667 4.00587 4.14349 4.51168 3.5 4.51168Z" fill="#666666"/>
</svg>
