<svg width="32" height="32" viewBox="0 0 32 32" fill="none" xmlns="http://www.w3.org/2000/svg">
<path d="M11.8554 13.7349L20.7954 9.71269M20.7616 22.3461L11.0103 17.9768M30 25C30 27.7614 27.7614 30 25 30C22.2386 30 20 27.7614 20 25C20 22.2386 22.2386 20 25 20C27.7614 20 30 22.2386 30 25ZM30 7C30 9.76142 27.7614 12 25 12C22.2386 12 20 9.76142 20 7C20 4.23858 22.2386 2 25 2C27.7614 2 30 4.23858 30 7ZM12 15C12 17.7614 9.76142 20 7 20C4.23858 20 2 17.7614 2 15C2 12.2386 4.23858 10 7 10C9.76142 10 12 12.2386 12 15Z" stroke="#FE543D" stroke-width="2" stroke-linecap="round" stroke-linejoin="round"/>
</svg>
