<svg width="10" height="9" viewBox="0 0 10 9" fill="none" xmlns="http://www.w3.org/2000/svg">
<path d="M9.90919 3.27138H7.00341C6.95346 3.27138 6.9126 3.31186 6.9126 3.36134V3.90107C6.9126 3.95054 6.95346 3.99102 7.00341 3.99102H9.90919C9.95914 3.99102 10 3.95054 10 3.90107V3.36134C10 3.31186 9.95914 3.27138 9.90919 3.27138ZM8.3882 4.80062H7.00341C6.95346 4.80062 6.9126 4.8411 6.9126 4.89057V5.4303C6.9126 5.47978 6.95346 5.52026 7.00341 5.52026H8.3882C8.43814 5.52026 8.479 5.47978 8.479 5.4303V4.89057C8.479 4.8411 8.43814 4.80062 8.3882 4.80062ZM4.60046 2.26501H4.10897C4.0386 2.26501 3.98184 2.32124 3.98184 2.39095V5.17955C3.98184 5.22003 4.00114 5.25714 4.03406 5.28075L5.72418 6.50189C5.78093 6.54237 5.86039 6.53112 5.90125 6.4749L6.19296 6.08023V6.0791C6.23383 6.02288 6.22134 5.94417 6.16459 5.90369L4.72645 4.87371V2.39095C4.72759 2.32124 4.6697 2.26501 4.60046 2.26501Z" fill="#666666"/>
<path d="M8.31782 6.21623H7.66175C7.59819 6.21623 7.53803 6.24883 7.50398 6.30281C7.35982 6.52882 7.19183 6.73796 6.99887 6.92912C6.66629 7.25858 6.27923 7.5172 5.84904 7.69711C5.40296 7.88376 4.92963 7.97822 4.44155 7.97822C3.95233 7.97822 3.47901 7.88376 3.03406 7.69711C2.60387 7.5172 2.21681 7.25858 1.88423 6.92912C1.55165 6.59966 1.29059 6.21623 1.10897 5.79006C0.920552 5.34929 0.825206 4.8804 0.825206 4.39576C0.825206 3.91113 0.920552 3.44337 1.10897 3.00146C1.29059 2.5753 1.55165 2.19187 1.88423 1.86241C2.21681 1.53295 2.60387 1.27433 3.03406 1.09442C3.47901 0.907763 3.95347 0.81331 4.44155 0.81331C4.93077 0.81331 5.40409 0.907763 5.84904 1.09442C6.27923 1.27433 6.66629 1.53295 6.99887 1.86241C7.19183 2.05356 7.35982 2.26271 7.50398 2.48872C7.53803 2.54269 7.59819 2.5753 7.66175 2.5753H8.31782C8.39614 2.5753 8.44609 2.49434 8.4109 2.42575C7.67083 0.967358 6.17027 0.0194584 4.4949 0.000342983C2.042 -0.0300168 0.00454805 1.95911 7.75461e-06 4.38677C-0.00453254 6.81892 1.98525 8.79231 4.44041 8.79231C6.13735 8.79231 7.66289 7.84104 8.4109 6.36578C8.44609 6.29718 8.39501 6.21623 8.31782 6.21623Z" fill="#666666"/>
</svg>
