<svg width="30" height="26" viewBox="0 0 30 26" fill="none" xmlns="http://www.w3.org/2000/svg">
<path d="M29.3027 9.67373H20.7099C20.5623 9.67373 20.4414 9.79344 20.4414 9.93974V11.5358C20.4414 11.6821 20.5623 11.8018 20.7099 11.8018H29.3027C29.4504 11.8018 29.5713 11.6821 29.5713 11.5358V9.93974C29.5713 9.79344 29.4504 9.67373 29.3027 9.67373ZM24.8049 14.1959H20.7099C20.5623 14.1959 20.4414 14.3156 20.4414 14.4619V16.0579C20.4414 16.2042 20.5623 16.3239 20.7099 16.3239H24.8049C24.9526 16.3239 25.0735 16.2042 25.0735 16.0579V14.4619C25.0735 14.3156 24.9526 14.1959 24.8049 14.1959ZM13.6041 6.69777H12.1507C11.9426 6.69777 11.7748 6.86402 11.7748 7.07018V15.3164C11.7748 15.4361 11.8318 15.5459 11.9292 15.6157L16.9271 19.2268C17.0949 19.3465 17.3299 19.3132 17.4507 19.147L18.3134 17.9798V17.9765C18.4342 17.8103 18.3973 17.5775 18.2294 17.4578L13.9767 14.412V7.07018C13.98 6.86402 13.8089 6.69777 13.6041 6.69777Z" fill="#666666"/>
<path d="M24.5969 18.3822H22.6568C22.4688 18.3822 22.2909 18.4786 22.1902 18.6382C21.764 19.3066 21.2672 19.925 20.6966 20.4903C19.7131 21.4646 18.5685 22.2293 17.2964 22.7613C15.9772 23.3133 14.5776 23.5926 13.1342 23.5926C11.6876 23.5926 10.2879 23.3133 8.97211 22.7613C7.69997 22.2293 6.55538 21.4646 5.57191 20.4903C4.58844 19.516 3.81643 18.3822 3.27938 17.122C2.72219 15.8185 2.44024 14.432 2.44024 12.9988C2.44024 11.5657 2.72219 10.1825 3.27938 8.87572C3.81643 7.6155 4.58844 6.48164 5.57191 5.50739C6.55538 4.53313 7.69997 3.76836 8.97211 3.23634C10.2879 2.68437 11.6909 2.40506 13.1342 2.40506C14.5809 2.40506 15.9806 2.68437 17.2964 3.23634C18.5685 3.76836 19.7131 4.53313 20.6966 5.50739C21.2672 6.07265 21.764 6.69112 22.1902 7.35947C22.2909 7.51907 22.4688 7.6155 22.6568 7.6155H24.5969C24.8285 7.6155 24.9762 7.37609 24.8721 7.17326C22.6837 2.8606 18.2463 0.057541 13.292 0.00101424C6.03847 -0.0887636 0.0134492 5.79335 2.29314e-05 12.9722C-0.0134033 20.1644 5.87065 26 13.1309 26C18.1489 26 22.6602 23.187 24.8721 18.8244C24.9762 18.6216 24.8251 18.3822 24.5969 18.3822Z" fill="#666666"/>
</svg>
