<svg width="36" height="36" viewBox="0 0 36 36" fill="none" xmlns="http://www.w3.org/2000/svg">
<path d="M18 0C8.05982 0 0 8.05982 0 18C0 27.9402 8.05982 36 18 36C27.9402 36 36 27.9402 36 18C36 8.05982 27.9402 0 18 0ZM26.6504 13.5683C26.6625 13.7571 26.6625 13.954 26.6625 14.1469C26.6625 20.0451 22.1705 26.8393 13.9621 26.8393C11.4308 26.8393 9.08437 26.104 7.10759 24.8384C7.4692 24.8786 7.81473 24.8946 8.18438 24.8946C10.2737 24.8946 12.1942 24.1875 13.725 22.9902C11.7643 22.95 10.117 21.6643 9.55446 19.8964C10.2415 19.9969 10.8603 19.9969 11.5674 19.8161C10.5578 19.611 9.65039 19.0627 8.99926 18.2643C8.34813 17.466 7.99347 16.4668 7.99554 15.4366V15.3804C8.58616 15.7138 9.28125 15.9187 10.0085 15.9469C9.39713 15.5394 8.89577 14.9875 8.54884 14.3399C8.20191 13.6923 8.02014 12.969 8.01964 12.2344C8.01964 11.4027 8.23661 10.6433 8.62634 9.98438C9.74693 11.3639 11.1453 12.4921 12.7304 13.2958C14.3156 14.0994 16.0522 14.5605 17.8272 14.6491C17.1964 11.6156 19.4625 9.16071 22.1866 9.16071C23.4723 9.16071 24.6295 9.69911 25.4451 10.567C26.4536 10.3781 27.4179 10.0004 28.2777 9.4942C27.9442 10.5268 27.2451 11.3987 26.317 11.9491C27.217 11.8527 28.0848 11.6036 28.8884 11.254C28.2817 12.146 27.5223 12.9375 26.6504 13.5683Z" fill="black"/>
</svg>
