<svg width="35" height="35" viewBox="0 0 35 35" fill="none" xmlns="http://www.w3.org/2000/svg">
<path d="M32.3825 8.09354C27.1469 -0.000267552 16.4576 -2.40654 8.16796 2.62475C0.0964503 7.65604 -2.52134 18.5936 2.71424 26.6874L3.15053 27.3437L1.40534 33.9062L7.94981 32.1562L8.60426 32.5937C11.4402 34.125 14.4943 35 17.5484 35C20.8206 35 24.0928 34.125 26.9288 32.375C35.0003 27.1249 37.3999 16.4061 32.3825 8.09354ZM27.8014 24.9374C26.9288 26.2499 25.838 27.1249 24.311 27.3437C23.4384 27.3437 22.3476 27.7812 17.9847 26.0312C14.2761 24.2812 11.222 21.4374 9.04055 18.1561C7.73166 16.6249 7.07721 14.6561 6.85907 12.6873C6.85907 10.9373 7.51351 9.40606 8.60426 8.3123C9.04055 7.87479 9.47685 7.65604 9.91315 7.65604H11.0039C11.4402 7.65604 11.8765 7.65604 12.0946 8.53105C12.5309 9.62481 13.6217 12.2498 13.6217 12.4686C13.8398 12.6873 13.8398 13.1248 13.6217 13.3436C13.8398 13.7811 13.6217 14.2186 13.4035 14.4373C13.1854 14.6561 12.9672 15.0936 12.7491 15.3123C12.3128 15.5311 12.0946 15.9686 12.3128 16.4061C13.1854 17.7186 14.2761 19.0311 15.3669 20.1249C16.6758 21.2186 17.9847 22.0937 19.5117 22.7499C19.948 22.9687 20.3843 22.9687 20.6024 22.5312C20.8206 22.0937 21.9113 20.9999 22.3476 20.5624C22.7839 20.1249 23.0021 20.1249 23.4384 20.3436L26.9288 22.0937C27.3651 22.3124 27.8014 22.5312 28.0195 22.7499C28.2377 23.4062 28.2377 24.2812 27.8014 24.9374Z" fill="black"/>
</svg>
